<?xml version="1.0" standalone="no"?><!DOCTYPE svg PUBLIC "-//W3C//DTD SVG 1.1//EN" "http://www.w3.org/Graphics/SVG/1.1/DTD/svg11.dtd"><svg t="1710863173347" class="icon" viewBox="0 0 1024 1024" version="1.1" xmlns="http://www.w3.org/2000/svg" p-id="1810" width="64" height="64" xmlns:xlink="http://www.w3.org/1999/xlink"><path d="M696.14983 983.05001h210.892449c41.74624 0 75.757482-34.864366 75.757481-77.748106V387.62578c0-26.162494-12.683122-50.334363-33.897492-64.837484L553.79174 54.167737a73.766857 73.766857 0 0 0-83.776855 0L74.847482 322.902046A78.032481 78.032481 0 0 0 40.94999 387.62578v517.676124c0 42.940615 33.954367 77.804981 75.757482 77.804981H327.59992v-267.539935c0-37.366866 29.973118-67.794983 66.828109-67.794983h234.893692c36.798116 0 66.828109 30.428118 66.828109 67.794983v267.539935z m210.892449 40.94999H675.674835a20.474995 20.474995 0 0 1-20.474995-20.474995v-288.01493a26.446869 26.446869 0 0 0-25.934994-26.901868H394.428029a26.389994 26.389994 0 0 0-25.878119 26.901868v288.01493a20.474995 20.474995 0 0 1-20.474995 20.474995H116.707472C52.324987 1024 0 970.651263 0 905.301904V387.62578c0-39.641865 19.337495-76.496856 51.813112-98.621226L447.037391 20.21337a115.171847 115.171847 0 0 1 129.845593 0l395.167404 268.677434v0.11375c32.418742 22.12437 51.756237 58.865611 51.756237 98.621226v517.676124c0 65.406234-52.324987 118.698096-116.707471 118.698096z" p-id="1811"></path></svg>